<?xml version="1.0" encoding="UTF-8" standalone="no"?>
<!-- Created with Inkscape (http://www.inkscape.org/) -->

<svg
   xmlns:dc="http://purl.org/dc/elements/1.1/"
   xmlns:cc="http://creativecommons.org/ns#"
   xmlns:rdf="http://www.w3.org/1999/02/22-rdf-syntax-ns#"
   xmlns:svg="http://www.w3.org/2000/svg"
   xmlns="http://www.w3.org/2000/svg"
   xmlns:sodipodi="http://sodipodi.sourceforge.net/DTD/sodipodi-0.dtd"
   xmlns:inkscape="http://www.inkscape.org/namespaces/inkscape"
   width="601.98749"
   height="600.3125"
   id="svg2"
   version="1.1"
   inkscape:version="0.48.0 r9654"
   sodipodi:docname="Documento nuevo 1">
  <defs
     id="defs4">
    <filter
       id="InvertTransparencyBitmapFilter"
       color-interpolation-filters="sRGB">
      <feComponentTransfer
         id="feComponentTransfer3040">
        <feFuncR
           id="feFuncR3042"
           offset="-0.055"
           exponent=".416666666"
           amplitude="1.055"
           type="gamma" />
        <feFuncG
           id="feFuncG3044"
           offset="-0.055"
           exponent=".416666666"
           amplitude="1.055"
           type="gamma" />
        <feFuncB
           id="feFuncB3046"
           offset="-0.055"
           exponent=".416666666"
           amplitude="1.055"
           type="gamma" />
      </feComponentTransfer>
      <feComponentTransfer
         id="feComponentTransfer3048">
        <feFuncR
           id="feFuncR3050"
           intercept="1"
           slope="-1"
           type="linear" />
        <feFuncG
           id="feFuncG3052"
           intercept="1"
           slope="-1"
           type="linear" />
        <feFuncB
           id="feFuncB3054"
           intercept="1"
           slope="-1"
           type="linear" />
        <feFuncA
           id="feFuncA3056"
           intercept="0"
           slope="1"
           type="linear" />
      </feComponentTransfer>
      <feComponentTransfer
         id="feComponentTransfer3058">
        <feFuncR
           id="feFuncR3060"
           offset="0"
           exponent="2.4"
           amplitude="1"
           type="gamma" />
        <feFuncG
           id="feFuncG3062"
           offset="0"
           exponent="2.4"
           amplitude="1"
           type="gamma" />
        <feFuncB
           id="feFuncB3064"
           offset="0"
           exponent="2.4"
           amplitude="1"
           type="gamma" />
      </feComponentTransfer>
    </filter>
    <filter
       id="BleachFilter"
       color-interpolation-filters="sRGB">
      <feBlend
         id="feBlend3035"
         result="blend"
         in="SourceGraphic"
         in2="BackgroundImage"
         mode="screen" />
      <feComposite
         id="feComposite3037"
         result="comp"
         operator="in"
         in2="SourceAlpha"
         in="blend" />
    </filter>
    <filter
       id="StainedFilter"
       color-interpolation-filters="sRGB">
      <feBlend
         id="feBlend3030"
         result="blend"
         in="SourceGraphic"
         in2="BackgroundImage"
         mode="multiply" />
      <feComposite
         id="feComposite3032"
         result="comp"
         operator="in"
         in2="SourceAlpha"
         in="blend" />
    </filter>
    <marker
       orient="auto"
       overflow="visible"
       markerHeight="1"
       markerWidth="1"
       viewBox="0 0 1 1"
       markerUnits="strokeWidth"
       id="DefaultArrow9"
       style="overflow:visible">
      <!-- REF_ARROW_HOLLOWDIAMOND -->
      <g
         id="g3025"
         transform="scale(0.00925926,0.00925926)">
        <path
           id="path3027"
           d="M 0,45 -45,0 0,-45 45,0 z M 0,63 -63,0 0,-63 63,0 z"
           inkscape:connector-curvature="0" />
      </g>
    </marker>
    <marker
       orient="auto"
       overflow="visible"
       markerHeight="1"
       markerWidth="1"
       viewBox="0 0 1 1"
       markerUnits="strokeWidth"
       id="DefaultArrow8"
       style="overflow:visible">
      <!-- REF_ARROW_FEATHER2 -->
      <g
         id="g3020"
         transform="scale(0.00925926,0.00925926)">
        <path
           id="path3022"
           d="m -36,0 54,-54 36,0 -36,36 9,0 36,-36 36,0 -36,36 9,0 36,-36 36,0 -54,54 54,54 -36,0 -36,-36 -9,0 36,36 -36,0 -36,-36 -9,0 36,36 -36,0 z"
           inkscape:connector-curvature="0" />
      </g>
    </marker>
    <marker
       orient="auto"
       overflow="visible"
       markerHeight="1"
       markerWidth="1"
       viewBox="0 0 1 1"
       markerUnits="strokeWidth"
       id="DefaultArrow7"
       style="overflow:visible">
      <!-- REF_ARROW_FEATHER -->
      <g
         id="g3015"
         transform="scale(0.00925926,0.00925926)">
        <path
           id="path3017"
           d="m 18,-54 90,0 L 63,0 108,54 18,54 -36,0 z"
           inkscape:connector-curvature="0" />
      </g>
    </marker>
    <marker
       orient="auto"
       overflow="visible"
       markerHeight="1"
       markerWidth="1"
       viewBox="0 0 1 1"
       markerUnits="strokeWidth"
       id="DefaultArrow6"
       style="overflow:visible">
      <!-- REF_ARROW_DIAMOND -->
      <g
         id="g3010"
         transform="scale(0.00925926,0.00925926)">
        <path
           id="path3012"
           d="M -63,0 0,63 63,0 0,-63 z"
           inkscape:connector-curvature="0" />
      </g>
    </marker>
    <marker
       orient="auto"
       overflow="visible"
       markerHeight="1"
       markerWidth="1"
       viewBox="0 0 1 1"
       markerUnits="strokeWidth"
       id="DefaultArrow5"
       style="overflow:visible">
      <!-- REF_ARROW_SPOT -->
      <g
         id="g3005"
         transform="scale(0.00925926,0.00925926)">
        <path
           id="path3007"
           d="M -54,0 C -54,29.807 -29.807,54 0,54 29.807,54 54,29.807 54,0 54,-29.807 29.807,-54 0,-54 -29.807,-54 -54,-29.807 -54,0 z"
           inkscape:connector-curvature="0" />
      </g>
    </marker>
    <marker
       orient="auto"
       overflow="visible"
       markerHeight="1"
       markerWidth="1"
       viewBox="0 0 1 1"
       markerUnits="strokeWidth"
       id="DefaultArrow4"
       style="overflow:visible">
      <!-- REF_ARROW_ROUNDED -->
      <g
         id="g3000"
         transform="scale(0.00925926,0.00925926)">
        <path
           id="path3002"
           d="m -9,0 0,-45 c 0,-6.708 11.808,-11.58 18,-9 l 108,45 c 3.916,1.631 9,4.758 9,9 0,4.242 -5.084,7.369 -9,9 L 9,54 C 2.808,56.58 -9,51.708 -9,45 z"
           inkscape:connector-curvature="0" />
      </g>
    </marker>
    <marker
       orient="auto"
       overflow="visible"
       markerHeight="1"
       markerWidth="1"
       viewBox="0 0 1 1"
       markerUnits="strokeWidth"
       id="DefaultArrow3"
       style="overflow:visible">
      <!-- REF_ARROW_ANGLED -->
      <g
         id="g2995"
         transform="scale(0.00925926,0.00925926)">
        <path
           id="path2997"
           d="M -27,54 -9,0 -27,-54 135,0 z"
           inkscape:connector-curvature="0" />
      </g>
    </marker>
    <marker
       orient="auto"
       overflow="visible"
       markerHeight="1"
       markerWidth="1"
       viewBox="0 0 1 1"
       markerUnits="strokeWidth"
       id="DefaultArrow2"
       style="overflow:visible">
      <!-- REF_ARROW_STRAIGHT (-2) -->
      <g
         id="g2990"
         transform="scale(0.00925926,0.00925926)">
        <!-- 1/108 -->
        <path
           id="path2992"
           d="M -9,54 -9,-54 117,0 z"
           inkscape:connector-curvature="0" />
      </g>
    </marker>
  </defs>
  <sodipodi:namedview
     id="base"
     pagecolor="#ffffff"
     bordercolor="#666666"
     borderopacity="1.0"
     inkscape:pageopacity="0.0"
     inkscape:pageshadow="2"
     inkscape:zoom="0.35"
     inkscape:cx="256.71241"
     inkscape:cy="254.48164"
     inkscape:document-units="px"
     inkscape:current-layer="layer1"
     showgrid="false"
     fit-margin-top="0"
     fit-margin-left="0"
     fit-margin-right="0"
     fit-margin-bottom="0"
     inkscape:window-width="1280"
     inkscape:window-height="744"
     inkscape:window-x="-4"
     inkscape:window-y="-4"
     inkscape:window-maximized="1" />
  <metadata
     id="metadata7">
    <rdf:RDF>
      <cc:Work
         rdf:about="">
        <dc:format>image/svg+xml</dc:format>
        <dc:type
           rdf:resource="http://purl.org/dc/dcmitype/StillImage" />
        <dc:title></dc:title>
      </cc:Work>
    </rdf:RDF>
  </metadata>
  <g
     inkscape:label="Capa 1"
     inkscape:groupmode="layer"
     id="layer1"
     transform="translate(-93.287589,-186.53133)">
    <g
       transform="matrix(1.1727129,0,0,-1.1665262,74.992375,178.45136)"
       font-size="16"
       id="Document"
       style="font-size:16px;fill:none;stroke:#000000;stroke-width:1.06872737;font-family:Times New Roman">
      <g
         transform="translate(0,-536.814)"
         id="Spread"
         style="stroke-width:1.06872737">
        <g
           id="Layer 1"
           style="stroke-width:1.06872737">
          <g
             id="Group"
             style="stroke-width:1.06872737">
            <g
               id="Group_1"
               style="stroke-width:1.06872737">
              <path
                 id="path3071"
                 stroke-miterlimit="79.8403193612775"
                 d="M 432.862,205.248 C 434.339,126.459 364.711,61.741 277.498,60.657 190.188,59.57 118.26,122.525 116.782,201.315 l -2.675,142.627 316.08,3.932 z"
                 inkscape:connector-curvature="0"
                 style="fill:#f9d8b7;stroke:#edbd8b;stroke-width:0.8015455;stroke-miterlimit:79.84031677;marker-start:none;marker-end:none" />
              <path
                 id="path3073"
                 stroke-miterlimit="79.8403193612775"
                 d="m 35.382,35.217 0,239.847 c 0,132.495 104.204,239.845 232.519,239.845 128.456,0 232.521,-107.35 232.521,-239.845 l 0,-239.847 c -166.533,33.961 -317.737,22.729 -465.04,0 z m 396.957,170.216 -0.856,45.635 C 402.129,259.207 359,298.82 342.8,315.08 c 4.282,-17.182 11.365,-31.038 19.687,-46.055 7.653,-13.813 -61.455,50.647 -71.365,75.487 -3.913,-19.12 -3.187,-49.735 2.812,-69.551 -19.777,13.22 -43.128,34.791 -53.437,55.452 -1.836,-23.451 4.243,-46.741 5.625,-67.671 0.959,-14.536 -59.062,55.377 -59.062,76.131 0.001,-47.229 -37.31,-63.559 -57.188,-69.551 9.804,13.173 13.841,29.157 13.399,43.308 -0.227,7.241 -1.625,14.003 -4.024,19.663 -7.223,-21.73 -15.031,-34.088 -24.637,-42.877 l 1.649,-87.916 c 1.478,-78.79 73.406,-141.745 160.716,-140.659 87.213,1.084 156.841,65.803 155.364,144.592 z"
                 inkscape:connector-curvature="0"
                 style="fill:#000000;stroke-width:0.53436369;stroke-miterlimit:79.84031677;marker-start:none;marker-end:none" />
              <path
                 id="path3075"
                 stroke-miterlimit="79.8403193612775"
                 d="m 140.396,245.955 c -6.084,6.001 -10.664,11.898 -12.872,17.629"
                 inkscape:connector-curvature="0"
                 style="fill:none;stroke:none" />
              <path
                 id="path3077"
                 stroke-miterlimit="79.8403193612775"
                 d="m 157.535,231.309 c -6.385,4.928 -12.248,9.821 -17.139,14.646"
                 inkscape:connector-curvature="0"
                 style="fill:none;stroke:none" />
              <path
                 id="path3079"
                 stroke-miterlimit="79.8403193612775"
                 d="m 135.197,228.617 c -6.297,6.146 -11.04,12.184 -13.299,18.048"
                 inkscape:connector-curvature="0"
                 style="fill:none;stroke:none" />
              <path
                 id="path3081"
                 stroke-miterlimit="79.8403193612775"
                 d="m 151.909,214.39 c -6.2,4.786 -11.908,9.537 -16.712,14.227"
                 inkscape:connector-curvature="0"
                 style="fill:none;stroke:none" />
              <path
                 id="path3083"
                 stroke-miterlimit="79.8403193612775"
                 d="m 148.936,258.278 c -4.505,4.876 -7.897,9.675 -9.703,14.361"
                 inkscape:connector-curvature="0"
                 style="fill:none;stroke:none" />
              <path
                 id="path3085"
                 stroke-miterlimit="79.8403193612775"
                 d="m 169.244,240.365 c -7.831,6.045 -14.877,12.035 -20.308,17.913"
                 inkscape:connector-curvature="0"
                 style="fill:none;stroke:none" />
              <g
                 id="Group_2"
                 style="stroke:none">
                <path
                   id="path3088"
                   stroke-miterlimit="79.8403193612775"
                   d="m 137.863,202.856 c -18.75,74.063 87.374,108.651 99.75,0.752 l -99.75,-0.752 z"
                   inkscape:connector-curvature="0"
                   style="fill:#ffffff;stroke-width:0.5;marker-start:none;marker-end:none" />
                <ellipse
                   id="ellipse3090"
                   stroke-miterlimit="79.8403193612775"
                   transform="matrix(-0.25058277,0.96809518,-0.96809518,-0.25058277,182.486,237.446)"
                   ry="34.347"
                   rx="34.423"
                   cx="0"
                   cy="0"
                   sodipodi:cx="0"
                   sodipodi:cy="0"
                   sodipodi:rx="34.423"
                   sodipodi:ry="34.347"
                   style="fill:#402100"
                   d="M 34.423,0 C 34.423,18.969324 19.011298,34.347 0,34.347 -19.011298,34.347 -34.423,18.969324 -34.423,0 c 0,-18.969324 15.411702,-34.347 34.423,-34.347 19.011298,0 34.423,15.377676 34.423,34.347 z" />
                <ellipse
                   id="ellipse3092"
                   stroke-miterlimit="79.8403193612775"
                   transform="matrix(-0.25058277,0.96809518,-0.96809518,-0.25058277,182.348,237.282)"
                   ry="29.688999"
                   rx="29.754"
                   cx="0"
                   cy="0"
                   sodipodi:cx="0"
                   sodipodi:cy="0"
                   sodipodi:rx="29.754"
                   sodipodi:ry="29.688999"
                   style="fill:#723d07"
                   d="M 29.754,0 C 29.754,16.396781 16.43268,29.688999 0,29.688999 -16.43268,29.688999 -29.754,16.396781 -29.754,0 c 0,-16.396781 13.32132,-29.688999 29.754,-29.688999 16.43268,0 29.754,13.292218 29.754,29.688999 z" />
                <ellipse
                   id="ellipse3094"
                   stroke-miterlimit="79.8403193612775"
                   transform="matrix(-0.25056587,0.96809955,-0.96809955,-0.25056587,182.519,237.642)"
                   ry="25.705"
                   rx="25.761"
                   cx="0"
                   cy="0"
                   sodipodi:cx="0"
                   sodipodi:cy="0"
                   sodipodi:rx="25.761"
                   sodipodi:ry="25.705"
                   style="fill:#000000"
                   d="M 25.761,0 C 25.761,14.196479 14.227407,25.705 0,25.705 -14.227407,25.705 -25.761,14.196479 -25.761,0 c 0,-14.196479 11.533593,-25.705 25.761,-25.705 14.227407,0 25.761,11.508521 25.761,25.705 z" />
                <ellipse
                   id="ellipse3096"
                   stroke-miterlimit="79.8403193612775"
                   transform="matrix(-0.25059966,0.96809081,-0.96809081,-0.25059966,182.762,239.107)"
                   ry="13.987"
                   rx="14.018"
                   cx="0"
                   cy="0"
                   sodipodi:cx="0"
                   sodipodi:cy="0"
                   sodipodi:rx="14.018"
                   sodipodi:ry="13.987"
                   style="fill:#fffaf5"
                   d="M 14.018,0 C 14.018,7.7248071 7.7419274,13.987 0,13.987 -7.7419274,13.987 -14.018,7.7248071 -14.018,0 c 0,-7.7248071 6.2760726,-13.987 14.018,-13.987 7.7419274,0 14.018,6.2621929 14.018,13.987 z" />
                <path
                   id="path3098"
                   stroke-miterlimit="79.8403193612775"
                   d="m 137.824,202.906 c -0.127,0.154 -0.256,0.307 -0.382,0.461 -0.109,0.131 -0.211,0.216 -0.3,0.361 -0.14,0.225 -0.227,0.526 -0.326,0.771 -0.255,0.631 -0.463,1.286 -0.659,1.946 -0.522,1.753 -0.927,3.567 -1.249,5.417 -0.846,4.847 -1.212,10.147 -0.917,15.41 0.04,0.73 0.092,1.455 0.156,2.175 -3.645,3.58 -6.891,7.474 -9.271,11.707 -0.751,1.333 -1.416,2.737 -1.9,4.209 -0.242,0.731 -0.452,1.484 -0.517,2.306 -0.027,0.334 0.094,0.577 0.189,0.875 0.223,-0.125 0.47,-0.231 0.661,-0.406 0.236,-0.22 0.429,-0.5 0.621,-0.748 0.284,-0.371 0.551,-0.748 0.825,-1.121 0.626,-0.856 1.253,-1.719 1.902,-2.561 1.777,-2.312 3.709,-4.563 5.749,-6.749 0.782,-0.839 1.576,-1.666 2.379,-2.484 0.771,4.605 2.035,8.976 3.79,13.094 -3.157,3.245 -5.957,6.74 -8.073,10.504 -0.751,1.333 -1.416,2.737 -1.9,4.208 -0.242,0.732 -0.452,1.485 -0.517,2.307 -0.027,0.334 0.094,0.577 0.189,0.874 0.223,-0.124 0.47,-0.23 0.661,-0.406 0.236,-0.219 0.429,-0.499 0.621,-0.748 0.284,-0.371 0.551,-0.748 0.825,-1.12 0.626,-0.857 1.253,-1.719 1.902,-2.561 1.777,-2.312 3.709,-4.563 5.749,-6.749 0.776,-0.833 1.564,-1.654 2.361,-2.465 0.923,1.766 1.944,3.483 3.064,5.147 0.966,1.435 2.014,2.828 3.15,4.18 -1.659,2.039 -3.147,4.167 -4.396,6.389 -0.751,1.333 -1.416,2.736 -1.9,4.208 -0.242,0.732 -0.452,1.485 -0.517,2.307 -0.027,0.334 0.094,0.576 0.189,0.874 0.223,-0.124 0.47,-0.23 0.661,-0.406 0.236,-0.219 0.429,-0.499 0.621,-0.748 0.284,-0.371 0.551,-0.748 0.825,-1.121 0.626,-0.856 1.253,-1.718 1.902,-2.56 1.608,-2.092 3.343,-4.135 5.17,-6.126 6.077,6.215 13.38,10.435 21.496,12.667 3.109,0.855 6.386,1.409 9.828,1.592 2.632,0.138 5.343,0.045 7.867,-0.234 2.727,-0.303 5.329,-0.842 7.85,-1.556 2.191,-0.622 4.319,-1.393 6.367,-2.306 6.249,-2.79 11.864,-6.737 16.904,-11.936 0.71,-0.734 1.394,-1.484 2.055,-2.245 6.295,-7.256 10.636,-15.555 13.577,-24.495 2.242,-6.818 3.724,-14.073 4.237,-21.753 0.127,-1.906 0.197,-3.865 0.146,-5.833 -0.015,-0.568 -0.044,-1.131 -0.081,-1.681 -0.034,-0.499 -0.06,-0.983 -0.155,-1.457 -0.017,-0.08 -0.009,-0.166 -0.03,-0.244 -0.025,-0.087 -0.078,-0.166 -0.107,-0.25 -0.108,-0.307 -0.252,-0.605 -0.382,-0.901 0.002,-0.034 0.004,-0.065 0.007,-0.096 l -0.099,-0.007 c -0.228,3.217 -0.555,6.317 -0.011,0.101 l -0.367,0.594 c -0.106,0.17 -0.201,0.277 -0.285,0.461 -0.075,0.161 -0.09,0.294 -0.141,0.465 -0.582,1.926 -1.005,3.931 -1.456,5.916 -0.898,3.943 -1.852,7.857 -2.973,11.682 -0.851,2.897 -1.803,5.747 -2.871,8.536 -2.598,6.775 -5.891,13.213 -10.295,19.08 -1.925,2.564 -4.091,5.064 -6.518,7.344 -1.597,1.499 -3.231,2.882 -4.942,4.14 -2.055,1.509 -4.209,2.864 -6.453,3.992 -3.851,1.936 -7.919,3.374 -12.358,4.138 -1.834,0.315 -3.716,0.512 -5.675,0.575 -3.199,0.103 -6.297,-0.173 -9.19,-0.75 -7.309,-1.457 -13.848,-4.704 -19.424,-9.656 -4.597,-4.082 -8.127,-8.907 -10.74,-14.082 -3.663,-7.253 -5.62,-15.341 -6.335,-24.068 -0.334,-4.071 -0.345,-8.328 -0.29,-12.555 0.013,-1.051 0.032,-2.112 0.018,-3.166 -0.009,-0.626 0.01,-1.304 -0.142,-1.86 l -0.267,-0.781 c -0.881,5.213 -0.495,2.594 0.014,-0.093 l -0.099,-0.019 c -0.006,0.031 -0.012,0.062 -0.018,0.09 z"
                   inkscape:connector-curvature="0"
                   style="fill:#000000;stroke-width:0;marker-start:none;marker-end:none" />
                <path
                   id="path3100"
                   stroke-miterlimit="79.8403193612775"
                   d="m 197.058,254.741 0.788,-0.678 c 0.395,-0.34 0.55,-1.006 0.346,-1.487 l -0.406,-0.957 c -0.204,-0.48 0.029,-0.73 0.52,-0.557 l 0.98,0.345 c 0.491,0.173 1.144,-0.026 1.457,-0.443 l 0.624,-0.832 c 0.313,-0.417 0.645,-0.339 0.741,0.174 l 0.192,1.022 c 0.096,0.514 0.595,0.981 1.111,1.044 l 1.031,0.127 c 0.517,0.063 0.616,0.39 0.221,0.73 l -0.788,0.678 c -0.395,0.34 -0.55,1.007 -0.346,1.487 l 0.406,0.957 c 0.204,0.481 -0.029,0.73 -0.52,0.558 l -0.98,-0.346 c -0.491,-0.172 -1.144,0.026 -1.457,0.444 l -0.624,0.831 c -0.313,0.418 -0.645,0.34 -0.741,-0.174 l -0.192,-1.022 c -0.096,-0.513 -0.595,-0.981 -1.111,-1.044 l -1.031,-0.126 c -0.517,-0.063 -0.616,-0.391 -0.221,-0.731 z"
                   inkscape:connector-curvature="0"
                   style="fill:#fffcfc;stroke-width:0.287;marker-start:none;marker-end:none" />
                <path
                   id="path3102"
                   stroke-miterlimit="79.8403193612775"
                   d="m 202.877,238.391 0.558,-0.48 c 0.28,-0.241 0.389,-0.713 0.245,-1.054 l -0.288,-0.677 c -0.144,-0.34 0.021,-0.517 0.369,-0.395 l 0.693,0.245 c 0.348,0.122 0.811,-0.019 1.033,-0.314 l 0.441,-0.589 c 0.222,-0.295 0.457,-0.24 0.525,0.123 l 0.136,0.724 c 0.068,0.363 0.421,0.695 0.787,0.739 l 0.729,0.09 c 0.366,0.044 0.437,0.276 0.157,0.517 l -0.558,0.48 c -0.28,0.241 -0.389,0.713 -0.245,1.053 l 0.288,0.678 c 0.144,0.34 -0.021,0.517 -0.369,0.394 l -0.693,-0.244 c -0.348,-0.122 -0.811,0.018 -1.033,0.314 l -0.441,0.589 c -0.222,0.295 -0.457,0.24 -0.525,-0.123 l -0.136,-0.724 c -0.068,-0.364 -0.421,-0.695 -0.787,-0.74 l -0.729,-0.089 c -0.366,-0.045 -0.437,-0.277 -0.157,-0.517 z"
                   inkscape:connector-curvature="0"
                   style="fill:#fffcfc;stroke-width:0.20299999;marker-start:none;marker-end:none" />
              </g>
              <path
                 id="path3104"
                 stroke-miterlimit="79.8403193612775"
                 d="m 264.079,124.976 c -2.902,0.97 -5.69,2.226 -8.217,3.932 -0.671,0.452 -1.32,0.931 -1.932,1.507 -0.32,0.3 -0.453,0.643 -0.644,1.012 0.286,0.02 0.603,0.084 0.889,0.064 0.191,-0.014 0.407,-0.097 0.595,-0.144 0.579,-0.146 1.146,-0.329 1.709,-0.512 1.628,-0.53 3.253,-1.081 4.908,-1.56 4.515,-1.31 9.203,-2.183 14.348,-2.229 5.69,-0.053 10.915,0.975 15.894,2.389 1.513,0.429 3.005,0.9 4.506,1.356 0.738,0.224 1.476,0.439 2.239,0.617 0.448,0.104 0.921,0.048 1.412,0.019 -0.113,-0.181 -0.227,-0.361 -0.339,-0.542 -0.084,-0.134 -0.124,-0.241 -0.225,-0.361 -0.152,-0.178 -0.392,-0.333 -0.574,-0.481 -0.573,-0.464 -1.183,-0.866 -1.797,-1.246 -1.683,-1.043 -3.456,-1.922 -5.289,-2.674 -3.102,-1.273 -6.378,-2.193 -9.866,-2.69 -1.062,-0.151 -2.141,-0.263 -3.246,-0.327 -5.122,-0.301 -10.014,0.414 -14.371,1.87 z"
                 inkscape:connector-curvature="0"
                 style="fill:#000000;fill-rule:evenodd;stroke:none;stroke-width:0.5;marker-start:none;marker-end:none" />
              <path
                 id="path3106"
                 stroke-miterlimit="79.8403193612775"
                 d="m 272.601,202.893 11.4,-13.835 -9.9,-17.143 c 6.5,4.197 13.532,7.953 15.3,16.842 -4.986,5.328 -10.91,9.715 -16.8,14.136 z"
                 inkscape:connector-curvature="0"
                 style="fill:#edbd8b;stroke:none;stroke-width:0.5;marker-start:none;marker-end:none" />
              <path
                 id="path3108"
                 stroke-miterlimit="79.8403193612775"
                 d="m 275.212,109.775 c -1.397,0.145 -2.717,0.48 -3.957,0.944 -1.923,0.719 -3.786,1.833 -5.193,3.5 -0.256,0.303 -0.49,0.621 -0.68,0.958 -0.117,0.205 -0.256,0.438 -0.309,0.674 -0.05,0.218 0.004,0.489 0.028,0.724 0.199,0.01 0.426,0.054 0.625,0.034 0.103,-0.011 0.232,-0.078 0.332,-0.113 0.311,-0.112 0.608,-0.253 0.905,-0.389 0.787,-0.365 1.576,-0.732 2.394,-1.045 2.471,-0.949 5.173,-1.475 8.141,-1.383 3.195,0.098 6.044,0.877 8.727,2 0.79,0.33 1.565,0.698 2.347,1.041 0.383,0.169 0.79,0.386 1.211,0.471 0.249,0.049 0.548,0.002 0.818,-0.014 -0.004,-0.228 0.035,-0.509 -0.01,-0.731 -0.008,-0.037 -0.038,-0.065 -0.049,-0.1 -0.056,-0.168 -0.16,-0.336 -0.251,-0.488 -0.286,-0.476 -0.64,-0.912 -1.034,-1.331 -1.119,-1.189 -2.404,-2.088 -3.762,-2.812 -2.541,-1.357 -5.424,-2.095 -8.659,-2.045 -0.556,0.008 -1.092,0.049 -1.624,0.105 z"
                 inkscape:connector-curvature="0"
                 style="fill:#edbd8b;fill-rule:evenodd;stroke:none;stroke-width:0.5;marker-start:none;marker-end:none" />
              <path
                 id="path3110"
                 stroke-miterlimit="79.8403193612775"
                 d="m 406.953,206.081 c 18.75,74.063 -87.374,108.651 -99.75,0.752 l 99.75,-0.752 z"
                 inkscape:connector-curvature="0"
                 style="fill:#ffffff;stroke:none;stroke-width:0.5;marker-start:none;marker-end:none" />
              <ellipse
                 id="ellipse3112"
                 stroke-miterlimit="79.8403193612775"
                 transform="matrix(0.25058615,0.9680943,-0.9680943,0.25058615,362.33,240.671)"
                 ry="34.347"
                 rx="34.423"
                 cx="0"
                 cy="0"
                 sodipodi:cx="0"
                 sodipodi:cy="0"
                 sodipodi:rx="34.423"
                 sodipodi:ry="34.347"
                 style="fill:#402100;stroke:none"
                 d="M 34.423,0 C 34.423,18.969324 19.011298,34.347 0,34.347 -19.011298,34.347 -34.423,18.969324 -34.423,0 c 0,-18.969324 15.411702,-34.347 34.423,-34.347 19.011298,0 34.423,15.377676 34.423,34.347 z" />
              <ellipse
                 id="ellipse3114"
                 stroke-miterlimit="79.8403193612775"
                 transform="matrix(0.25058615,0.9680943,-0.9680943,0.25058615,362.468,240.507)"
                 ry="29.688999"
                 rx="29.754"
                 cx="0"
                 cy="0"
                 sodipodi:cx="0"
                 sodipodi:cy="0"
                 sodipodi:rx="29.754"
                 sodipodi:ry="29.688999"
                 style="fill:#723d07;stroke:none"
                 d="M 29.754,0 C 29.754,16.396781 16.43268,29.688999 0,29.688999 -16.43268,29.688999 -29.754,16.396781 -29.754,0 c 0,-16.396781 13.32132,-29.688999 29.754,-29.688999 16.43268,0 29.754,13.292218 29.754,29.688999 z" />
              <ellipse
                 id="ellipse3116"
                 stroke-miterlimit="79.8403193612775"
                 transform="matrix(0.25056418,0.96809999,-0.96809999,0.25056418,362.297,240.867)"
                 ry="25.705"
                 rx="25.761"
                 cx="0"
                 cy="0"
                 sodipodi:cx="0"
                 sodipodi:cy="0"
                 sodipodi:rx="25.761"
                 sodipodi:ry="25.705"
                 style="fill:#000000;stroke:none"
                 d="M 25.761,0 C 25.761,14.196479 14.227407,25.705 0,25.705 -14.227407,25.705 -25.761,14.196479 -25.761,0 c 0,-14.196479 11.533593,-25.705 25.761,-25.705 14.227407,0 25.761,11.508521 25.761,25.705 z" />
              <ellipse
                 id="ellipse3118"
                 stroke-miterlimit="79.8403193612775"
                 transform="matrix(0.25060135,0.96809037,-0.96809037,0.25060135,362.054,242.332)"
                 ry="13.987"
                 rx="14.018"
                 cx="0"
                 cy="0"
                 sodipodi:cx="0"
                 sodipodi:cy="0"
                 sodipodi:rx="14.018"
                 sodipodi:ry="13.987"
                 style="fill:#fffaf5;stroke:none"
                 d="M 14.018,0 C 14.018,7.7248071 7.7419274,13.987 0,13.987 -7.7419274,13.987 -14.018,7.7248071 -14.018,0 c 0,-7.7248071 6.2760726,-13.987 14.018,-13.987 7.7419274,0 14.018,6.2621929 14.018,13.987 z" />
              <path
                 id="path3120"
                 stroke-miterlimit="79.8403193612775"
                 d="m 406.992,206.131 c 0.127,0.154 0.256,0.307 0.382,0.462 0.109,0.13 0.211,0.215 0.3,0.36 0.14,0.225 0.227,0.526 0.326,0.771 0.255,0.631 0.463,1.286 0.659,1.946 0.522,1.753 0.927,3.567 1.249,5.417 0.846,4.847 1.212,10.147 0.917,15.41 -0.04,0.73 -0.092,1.456 -0.156,2.175 3.645,3.58 6.891,7.474 9.271,11.707 0.751,1.333 1.416,2.737 1.9,4.209 0.242,0.732 0.452,1.484 0.517,2.306 0.027,0.334 -0.094,0.577 -0.189,0.875 -0.223,-0.125 -0.47,-0.231 -0.661,-0.406 -0.236,-0.22 -0.429,-0.5 -0.621,-0.748 -0.284,-0.371 -0.551,-0.748 -0.825,-1.121 -0.626,-0.856 -1.253,-1.718 -1.902,-2.561 -1.777,-2.311 -3.709,-4.563 -5.749,-6.749 -0.782,-0.839 -1.576,-1.666 -2.379,-2.484 -0.771,4.605 -2.035,8.976 -3.79,13.094 3.157,3.245 5.957,6.74 8.073,10.504 0.751,1.333 1.416,2.737 1.9,4.208 0.242,0.732 0.452,1.485 0.517,2.307 0.027,0.334 -0.094,0.577 -0.189,0.874 -0.223,-0.124 -0.47,-0.23 -0.661,-0.406 -0.236,-0.219 -0.429,-0.499 -0.621,-0.747 -0.284,-0.371 -0.551,-0.748 -0.825,-1.121 -0.626,-0.856 -1.253,-1.719 -1.902,-2.561 -1.777,-2.312 -3.709,-4.563 -5.749,-6.749 -0.776,-0.833 -1.564,-1.654 -2.361,-2.465 -0.923,1.766 -1.944,3.483 -3.064,5.147 -0.966,1.436 -2.014,2.828 -3.15,4.181 1.659,2.038 3.147,4.166 4.396,6.388 0.751,1.333 1.416,2.737 1.9,4.208 0.242,0.732 0.452,1.485 0.517,2.307 0.027,0.334 -0.094,0.577 -0.189,0.874 -0.223,-0.124 -0.47,-0.23 -0.661,-0.406 -0.236,-0.219 -0.429,-0.499 -0.621,-0.748 -0.284,-0.371 -0.551,-0.747 -0.825,-1.12 -0.626,-0.857 -1.253,-1.719 -1.902,-2.561 -1.608,-2.092 -3.343,-4.135 -5.17,-6.125 -6.077,6.214 -13.38,10.434 -21.496,12.667 -3.109,0.854 -6.386,1.408 -9.828,1.591 -2.632,0.138 -5.343,0.045 -7.867,-0.234 -2.727,-0.303 -5.329,-0.842 -7.85,-1.556 -2.191,-0.621 -4.319,-1.392 -6.367,-2.306 -6.249,-2.79 -11.864,-6.737 -16.904,-11.936 -0.71,-0.734 -1.394,-1.484 -2.055,-2.245 -6.295,-7.256 -10.636,-15.555 -13.577,-24.494 -2.242,-6.819 -3.724,-14.074 -4.237,-21.753 -0.127,-1.907 -0.197,-3.866 -0.146,-5.834 0.015,-0.568 0.044,-1.131 0.081,-1.68 0.034,-0.5 0.06,-0.984 0.155,-1.458 0.017,-0.08 0.009,-0.165 0.03,-0.244 0.025,-0.087 0.078,-0.166 0.107,-0.25 0.108,-0.307 0.252,-0.605 0.382,-0.901 -0.002,-0.034 -0.004,-0.065 -0.007,-0.096 l 0.099,-0.007 c 0.228,3.217 0.555,6.317 0.011,0.101 l 0.367,0.594 c 0.106,0.17 0.201,0.278 0.285,0.461 0.075,0.162 0.09,0.294 0.141,0.465 0.582,1.926 1.005,3.931 1.456,5.916 0.898,3.943 1.852,7.857 2.973,11.682 0.851,2.897 1.803,5.747 2.871,8.536 2.598,6.775 5.891,13.213 10.295,19.081 1.925,2.563 4.091,5.063 6.518,7.343 1.597,1.499 3.231,2.882 4.942,4.141 2.055,1.508 4.209,2.863 6.453,3.992 3.851,1.936 7.919,3.373 12.358,4.137 1.834,0.315 3.716,0.512 5.675,0.576 3.199,0.102 6.297,-0.174 9.19,-0.75 7.309,-1.458 13.848,-4.705 19.424,-9.657 4.597,-4.082 8.127,-8.907 10.74,-14.082 3.663,-7.253 5.62,-15.341 6.335,-24.068 0.334,-4.07 0.345,-8.328 0.29,-12.555 -0.013,-1.051 -0.032,-2.112 -0.018,-3.166 0.009,-0.625 -0.01,-1.304 0.142,-1.86 l 0.267,-0.781 c 0.881,5.214 0.495,2.594 -0.014,-0.093 l 0.099,-0.019 c 0.006,0.031 0.012,0.062 0.018,0.09 z"
                 inkscape:connector-curvature="0"
                 style="fill:#000000;stroke:none;stroke-width:0;marker-start:none;marker-end:none" />
              <path
                 id="path3122"
                 stroke-miterlimit="79.8403193612775"
                 d="m 387.447,257.966 -0.788,-0.678 c -0.395,-0.34 -0.55,-1.006 -0.346,-1.487 l 0.406,-0.957 c 0.204,-0.48 -0.029,-0.73 -0.52,-0.557 l -0.98,0.345 c -0.491,0.173 -1.144,-0.026 -1.457,-0.443 l -0.624,-0.832 c -0.313,-0.417 -0.645,-0.339 -0.741,0.174 l -0.192,1.022 c -0.096,0.514 -0.595,0.981 -1.111,1.044 l -1.031,0.127 c -0.517,0.063 -0.616,0.39 -0.221,0.73 l 0.788,0.678 c 0.395,0.34 0.55,1.007 0.346,1.487 l -0.406,0.957 c -0.204,0.481 0.029,0.73 0.52,0.558 l 0.98,-0.346 c 0.491,-0.172 1.144,0.026 1.457,0.444 l 0.624,0.831 c 0.313,0.418 0.645,0.34 0.741,-0.174 l 0.192,-1.022 c 0.096,-0.513 0.595,-0.981 1.111,-1.044 l 1.031,-0.126 c 0.517,-0.063 0.616,-0.391 0.221,-0.731 z"
                 inkscape:connector-curvature="0"
                 style="fill:#fffcfc;stroke:none;stroke-width:0.287;marker-start:none;marker-end:none" />
              <path
                 id="path3124"
                 stroke-miterlimit="79.8403193612775"
                 d="m 390.133,241.616 -0.558,-0.48 c -0.28,-0.241 -0.389,-0.713 -0.245,-1.054 l 0.288,-0.677 c 0.144,-0.34 -0.021,-0.517 -0.369,-0.395 l -0.693,0.245 c -0.348,0.122 -0.811,-0.019 -1.033,-0.314 l -0.441,-0.589 c -0.222,-0.295 -0.457,-0.24 -0.525,0.123 l -0.136,0.724 c -0.068,0.363 -0.421,0.695 -0.787,0.739 l -0.729,0.09 c -0.366,0.044 -0.437,0.276 -0.157,0.517 l 0.558,0.48 c 0.28,0.241 0.389,0.713 0.245,1.053 l -0.288,0.678 c -0.144,0.34 0.021,0.517 0.369,0.394 l 0.693,-0.244 c 0.348,-0.122 0.811,0.018 1.033,0.314 l 0.441,0.589 c 0.222,0.295 0.457,0.24 0.525,-0.123 l 0.136,-0.724 c 0.068,-0.364 0.421,-0.695 0.787,-0.74 l 0.729,-0.089 c 0.366,-0.045 0.437,-0.277 0.157,-0.517 z"
                 inkscape:connector-curvature="0"
                 style="fill:#fffcfc;stroke:none;stroke-width:0.20299999;marker-start:none;marker-end:none" />
            </g>
            <path
               id="path3126"
               stroke-miterlimit="79.8403193612775"
               d="m 401.202,193.138 1.364,-0.164 c 0.685,-0.081 1.347,-0.698 1.476,-1.375 l 0.258,-1.35 c 0.129,-0.677 0.57,-0.779 0.983,-0.227 l 0.823,1.101 c 0.413,0.552 1.279,0.816 1.93,0.59 l 1.298,-0.452 c 0.651,-0.226 0.96,0.104 0.688,0.738 l -0.542,1.263 c -0.272,0.634 -0.069,1.516 0.453,1.966 l 1.041,0.899 c 0.522,0.45 0.389,0.883 -0.296,0.964 l -1.363,0.164 c -0.685,0.081 -1.347,0.698 -1.476,1.375 l -0.258,1.35 c -0.129,0.677 -0.57,0.779 -0.983,0.227 l -0.823,-1.101 c -0.413,-0.552 -1.279,-0.816 -1.93,-0.59 l -1.298,0.452 c -0.651,0.226 -0.96,-0.104 -0.688,-0.738 l 0.542,-1.263 c 0.272,-0.634 0.069,-1.516 -0.453,-1.966 l -1.042,-0.899 c -0.522,-0.45 -0.389,-0.883 0.296,-0.964 z"
               inkscape:connector-curvature="0"
               style="fill:#000000;stroke-width:0.53436369;stroke-miterlimit:79.84031677;marker-start:none;marker-end:none" />
            <path
               id="path3128"
               stroke-miterlimit="79.8403193612775"
               d="m 53.494,267.443 2.511,33.859 c -5.388,235.507 379.459,281.427 429.374,12.187 l 5.625,-267.186 c -33.534,43.651 -42.296,120.249 -38.438,213.749 -36.51,10.493 -76.925,27.759 -114.072,88.391 -4.124,-29.624 2.626,-38.624 9.75,-63.374 -43.001,50.285 -55.991,72.52 -53.177,79.982 -12.613,-16.998 -12.732,-49.397 -12.447,-71.358 -19.033,15.633 -36.213,37.287 -51.303,65.733 -2.758,-23.322 2.532,-61.866 6.677,-82.233 -31.108,35.174 -46.372,67.046 -53.552,97.233 -0.063,-42.494 -19.069,-77.273 -39.822,-88.233 9,18 7.124,34.126 -3.75,68.626 C 134.093,331.22 118.578,307.363 97.545,289.393 93.543,177.97 112.262,136.192 47.287,47.527 c 32.826,24.548 65.235,50.737 66.624,98.369 21.695,-41.401 46.61,-61.352 72.187,-76.874 -43.569,-2.504 -98.134,-11.202 -139.4,-22.296 -0.334,-0.455 -0.669,-0.908 -1.005,-1.361 6.102,43.028 3.75,117.187 7.801,222.078 z m 434.731,-219.63 -126.6,22.2 c 45.08,20.02 60.6,54 76.8,89.4 -2.153,-58.42 27.008,-80.815 49.8,-111.6 z"
               inkscape:connector-curvature="0"
               style="fill:#333333;stroke:none;stroke-width:0.5;marker-start:none;marker-end:none" />
            <path
               id="path3130"
               stroke-miterlimit="79.8403193612775"
               d="m 408.266,185.312 0.67,-0.081 c 0.336,-0.039 0.661,-0.342 0.725,-0.675 l 0.126,-0.663 c 0.064,-0.332 0.28,-0.382 0.483,-0.111 l 0.404,0.54 c 0.203,0.272 0.628,0.401 0.948,0.29 l 0.637,-0.222 c 0.32,-0.111 0.471,0.051 0.338,0.363 l -0.266,0.62 c -0.134,0.311 -0.034,0.744 0.222,0.965 l 0.511,0.441 c 0.256,0.221 0.191,0.434 -0.145,0.474 l -0.669,0.08 c -0.337,0.04 -0.662,0.343 -0.725,0.675 l -0.127,0.663 c -0.063,0.333 -0.28,0.383 -0.482,0.112 l -0.405,-0.541 c -0.202,-0.271 -0.627,-0.401 -0.947,-0.29 l -0.637,0.222 c -0.32,0.111 -0.472,-0.051 -0.338,-0.362 l 0.266,-0.62 c 0.133,-0.311 0.034,-0.745 -0.223,-0.965 l -0.511,-0.442 c -0.256,-0.221 -0.191,-0.433 0.145,-0.473 z"
               inkscape:connector-curvature="0"
               style="fill:#000000;stroke-width:0.2618382;stroke-miterlimit:79.84031677;marker-start:none;marker-end:none" />
            <path
               id="path3132"
               stroke-miterlimit="79.8403193612775"
               d="m 405.504,179.747 0.456,-0.055 c 0.229,-0.027 0.45,-0.233 0.494,-0.46 l 0.086,-0.451 c 0.043,-0.227 0.191,-0.261 0.329,-0.076 l 0.275,0.368 c 0.138,0.185 0.428,0.273 0.646,0.198 l 0.434,-0.152 c 0.218,-0.075 0.321,0.035 0.23,0.247 l -0.181,0.423 c -0.091,0.212 -0.023,0.507 0.151,0.657 l 0.348,0.301 c 0.175,0.151 0.131,0.295 -0.099,0.322 l -0.456,0.055 c -0.229,0.027 -0.45,0.234 -0.493,0.46 l -0.087,0.452 c -0.043,0.226 -0.19,0.26 -0.328,0.076 l -0.276,-0.368 c -0.138,-0.185 -0.428,-0.273 -0.645,-0.198 l -0.434,0.151 c -0.218,0.076 -0.322,-0.034 -0.231,-0.247 l 0.182,-0.422 c 0.091,-0.212 0.023,-0.507 -0.152,-0.658 l -0.348,-0.3 c -0.175,-0.151 -0.131,-0.296 0.099,-0.323 z"
               inkscape:connector-curvature="0"
               style="fill:#000000;stroke-width:0.17740873;stroke-miterlimit:79.84031677;marker-start:none;marker-end:none" />
            <path
               id="path3134"
               stroke-miterlimit="79.8403193612775"
               d="m 358.417,379.329 40.604,-29.478 -15.83,-47.612 45.83,20.425 33.319,-37.516 5.225,49.903 49.15,10.097 -40.604,29.478 15.83,47.612 -45.83,-20.425 -33.319,37.516 -5.225,-49.903 -49.15,-10.097 z"
               inkscape:connector-curvature="0"
               style="fill:#7f7e00;stroke:none;stroke-width:0.5;marker-start:none;marker-end:none" />
            <path
               id="path3136"
               stroke-miterlimit="79.8403193612775"
               d="m 375.631,374.006 31.962,-23.205 -12.461,-37.48 36.077,16.079 26.228,-29.532 4.113,39.282 38.69,7.949 -31.962,23.204 12.461,37.48 -36.077,-16.078 -26.228,29.532 -4.113,-39.283 -38.69,-7.948 z"
               inkscape:connector-curvature="0"
               style="fill:#bfbd00;stroke:none;stroke-width:0.39300001;marker-start:none;marker-end:none" />
          </g>
        </g>
        <g
           id="Imagen1.emf"
           style="stroke-width:1.06872737" />
      </g>
    </g>
  </g>
</svg>
